<?xml version="1.0" encoding="UTF-8" standalone="no"?>
<!DOCTYPE svg PUBLIC "-//W3C//DTD SVG 1.1//EN"
 "http://www.w3.org/Graphics/SVG/1.1/DTD/svg11.dtd">
<!-- Generated by graphviz version 2.40.1 (20161225.0304)
 -->
<!-- Title: G Pages: 1 -->
<svg width="228pt" height="346pt"
 viewBox="0.00 0.00 228.36 346.00" xmlns="http://www.w3.org/2000/svg" xmlns:xlink="http://www.w3.org/1999/xlink">
<g id="graph0" class="graph" transform="scale(1 1) rotate(0) translate(4 342)">
<title>G</title>
<polygon fill="#ffffff" stroke="transparent" points="-4,4 -4,-342 224.3565,-342 224.3565,4 -4,4"/>
<!-- A0 -->
<g id="node1" class="node">
<title>A0</title>
<polygon fill="none" stroke="#000000" points="73.9523,-338 4.6087,-338 4.6087,-302 73.9523,-302 73.9523,-338"/>
<text text-anchor="middle" x="39.2805" y="-317" font-family="Helvetica,sans-Serif" font-size="10.00" fill="#000000">Trendline</text>
</g>
<!-- A1 -->
<g id="node2" class="node">
<title>A1</title>
<polygon fill="none" stroke="#000000" points="78.2348,-230 .3262,-230 .3262,-194 78.2348,-194 78.2348,-230"/>
<text text-anchor="middle" x="39.2805" y="-209" font-family="Helvetica,sans-Serif" font-size="10.00" fill="#000000">Hypothesis</text>
</g>
<!-- A0&#45;&gt;A1 -->
<g id="edge1" class="edge">
<title>A0&#45;&gt;A1</title>
<path fill="none" stroke="#000000" d="M39.2805,-289.6284C39.2805,-274.1817 39.2805,-255.522 39.2805,-240.3685"/>
<polygon fill="none" stroke="#000000" points="39.2806,-289.6793 43.2805,-295.6793 39.2805,-301.6793 35.2805,-295.6792 39.2806,-289.6793"/>
<polygon fill="#000000" stroke="#000000" points="39.2805,-230.0502 43.7806,-240.0501 39.2805,-235.0502 39.2806,-240.0502 39.2806,-240.0502 39.2806,-240.0502 39.2805,-235.0502 34.7806,-240.0502 39.2805,-230.0502 39.2805,-230.0502"/>
<text text-anchor="middle" x="47.7329" y="-245.1763" font-family="Helvetica,sans-Serif" font-size="10.00" fill="#000000">hypotheses 1..*</text>
</g>
<!-- A2 -->
<g id="node3" class="node">
<title>A2</title>
<polygon fill="none" stroke="#000000" points="78.3427,-122 .2183,-122 .2183,-86 78.3427,-86 78.3427,-122"/>
<text text-anchor="middle" x="39.2805" y="-101" font-family="Helvetica,sans-Serif" font-size="10.00" fill="#000000">Experiment</text>
</g>
<!-- A1&#45;&gt;A2 -->
<g id="edge2" class="edge">
<title>A1&#45;&gt;A2</title>
<path fill="none" stroke="#000000" d="M39.2805,-193.6793C39.2805,-176.821 39.2805,-151.5651 39.2805,-132.147"/>
<polygon fill="#000000" stroke="#000000" points="39.2805,-122.0502 43.7806,-132.0501 39.2805,-127.0502 39.2806,-132.0502 39.2806,-132.0502 39.2806,-132.0502 39.2805,-127.0502 34.7806,-132.0502 39.2805,-122.0502 39.2805,-122.0502"/>
</g>
<!-- A4 -->
<g id="node5" class="node">
<title>A4</title>
<polygon fill="#f5deb3" stroke="#000000" points="214.4326,-252 96.1284,-252 96.1284,-172 220.4326,-172 220.4326,-246 214.4326,-252"/>
<polyline fill="none" stroke="#000000" points="214.4326,-252 214.4326,-246 "/>
<polyline fill="none" stroke="#000000" points="220.4326,-246 214.4326,-246 "/>
<text text-anchor="middle" x="158.2805" y="-239" font-family="Helvetica,sans-Serif" font-size="10.00" fill="#000000">for hypotheses which</text>
<text text-anchor="middle" x="158.2805" y="-227" font-family="Helvetica,sans-Serif" font-size="10.00" fill="#000000">are too high level,</text>
<text text-anchor="middle" x="158.2805" y="-215" font-family="Helvetica,sans-Serif" font-size="10.00" fill="#000000">these may need to be</text>
<text text-anchor="middle" x="158.2805" y="-203" font-family="Helvetica,sans-Serif" font-size="10.00" fill="#000000">broken up into</text>
<text text-anchor="middle" x="158.2805" y="-191" font-family="Helvetica,sans-Serif" font-size="10.00" fill="#000000">smaller testable</text>
<text text-anchor="middle" x="158.2805" y="-179" font-family="Helvetica,sans-Serif" font-size="10.00" fill="#000000">hypotheses</text>
</g>
<!-- A1&#45;&gt;A4 -->
<g id="edge4" class="edge">
<title>A1&#45;&gt;A4</title>
<path fill="none" stroke="#000000" stroke-dasharray="5,2" d="M78.3274,-212C84.2614,-212 90.1954,-212 96.1294,-212"/>
</g>
<!-- A3 -->
<g id="node4" class="node">
<title>A3</title>
<polygon fill="none" stroke="#000000" points="77.0628,-36 1.4982,-36 1.4982,0 77.0628,0 77.0628,-36"/>
<text text-anchor="middle" x="39.2805" y="-15" font-family="Helvetica,sans-Serif" font-size="10.00" fill="#000000">Repository</text>
</g>
<!-- A2&#45;&gt;A3 -->
<g id="edge3" class="edge">
<title>A2&#45;&gt;A3</title>
<path fill="none" stroke="#000000" d="M39.2805,-85.7616C39.2805,-74.3597 39.2805,-59.4342 39.2805,-46.494"/>
<polygon fill="#000000" stroke="#000000" points="39.2805,-36.2121 43.7806,-46.2121 39.2805,-41.2121 39.2806,-46.2121 39.2806,-46.2121 39.2806,-46.2121 39.2805,-41.2121 34.7806,-46.2121 39.2805,-36.2121 39.2805,-36.2121"/>
</g>
</g>
</svg>
